# xmcd
#
# Track frame offsets: 
#        150
#        10495
#        28220
#        42120
#        59870
#        77707
#        87442
#        96615
#        118687
#        130065
#        144957
#        150175
#
# Disc length: 2240 seconds
#
# Revision: 0
# Processed by: cddbd v1.5.1PL0 Copyright (c) Steve Scherf et al.
# Submitted via: ExactAudioCopy v0.95a5
#
DISCID=9f08be0c
DTITLE=Cowboy Ken and The Ranchand Band - Family Tree
DYEAR=1900
DGENRE=Western
TTITLE0=Cattle Call
TTITLE1=Family Tree
TTITLE2=Buckin Bronco Blues
TTITLE3=I'll Take the Campfire
TTITLE4=Yuppies in the Sky
TTITLE5=Whoopi Ti Yi To
TTITLE6=Back in the Saddle Again
TTITLE7=Uncle Eb
TTITLE8=Biscuit Creek
TTITLE9=Hopin the Wind Dies Down
TTITLE10=My Home's in Montana
TTITLE11=Home on the Range
EXTD=
EXTT0=
EXTT1=
EXTT2=
EXTT3=
EXTT4=
EXTT5=
EXTT6=
EXTT7=
EXTT8=
EXTT9=
EXTT10=
EXTT11=
PLAYORDER=
